<svg width="21" height="20" viewBox="0 0 21 20" fill="none" xmlns="http://www.w3.org/2000/svg">
<path fill-rule="evenodd" clip-rule="evenodd" d="M5.41669 4.33331C4.31212 4.33331 3.41669 5.22874 3.41669 6.33331V6.91201C3.41669 7.14325 3.56376 7.34485 3.7621 7.46374C4.53721 7.92835 5.06952 8.88957 5.06952 9.99998C5.06952 11.1104 4.53721 12.0716 3.7621 12.5362C3.56376 12.6551 3.41669 12.8567 3.41669 13.088V13.6666C3.41669 14.7712 4.31212 15.6666 5.41669 15.6666H15.5834C16.6879 15.6666 17.5834 14.7712 17.5834 13.6666V13.0879C17.5834 12.8566 17.4363 12.6551 17.238 12.5362C16.4629 12.0715 15.9306 11.1104 15.9306 9.99998C15.9306 8.88961 16.4629 7.92842 17.238 7.46379C17.4363 7.34489 17.5834 7.14331 17.5834 6.91207V6.33331C17.5834 5.22874 16.6879 4.33331 15.5834 4.33331H5.41669ZM11.875 5.04165V7.52081C11.875 7.93503 12.2108 8.27081 12.625 8.27081C13.0392 8.27081 13.375 7.93503 13.375 7.52081V5.04165H11.875ZM13.375 12.4791C13.375 12.0649 13.0392 11.7291 12.625 11.7291C12.2108 11.7291 11.875 12.0649 11.875 12.4791V14.9583H13.375V12.4791Z" fill="#C3C3C3"/>
</svg>
